# xmcd
#
# Track frame offsets: 
#        150
#        16088
#        37856
#        54497
#        74118
#        91625
#        112159
#        127515
#        146084
#        161420
#        173759
#
# Disc length: 2657 seconds
#
# Revision: 0
# Processed by: cddbd v1.5.2PL0 Copyright (c) Steve Scherf et al.
# Submitted via: ExactAudioCopy v1.0b4
#
DISCID=860a5f0b
DTITLE=Fiona Boyes - Box and Dice
DYEAR=2015
DGENRE=Blues
TTITLE0=Juke Joint On Moses Lane
TTITLE1=I'm A Atranger Here
TTITLE2=Walking Round Money
TTITLE3=Smokestack Lighting
TTITLE4=Louisiana
TTITLE5=Black Mountain Blues
TTITLE6=Mama's Sanctified Amp
TTITLE7=I Done Quit
TTITLE8=Walk With Me
TTITLE9=Tiny Pinch Of Sin
TTITLE10=Easy Baby
EXTD=
EXTT0=
EXTT1=
EXTT2=
EXTT3=
EXTT4=
EXTT5=
EXTT6=
EXTT7=
EXTT8=
EXTT9=
EXTT10=
PLAYORDER=
